<?xml version="1.0" encoding="UTF-8" standalone="yes"?><svg xmlns="http://www.w3.org/2000/svg" xmlns:xlink="http://www.w3.org/1999/xlink" height="1244px" style="width:788px;height:1244px;" version="1.1" viewBox="0 0 788 1244" width="788px"><defs><filter height="300%" id="f1" width="300%" x="-1" y="-1"><feGaussianBlur result="blurOut" stdDeviation="2.0"/><feColorMatrix in="blurOut" result="blurOut2" type="matrix" values="0 0 0 0 0 0 0 0 0 0 0 0 0 0 0 0 0 0 .4 0"/><feOffset dx="4.0" dy="4.0" in="blurOut2" result="blurOut3"/><feBlend in="SourceGraphic" in2="blurOut3" mode="normal"/></filter></defs><g><text fill="#000000" font-family="sans-serif" font-size="14" font-weight="bold" lengthAdjust="spacingAndGlyphs" textLength="109" x="338.75" y="37.6357">Message flow</text><text fill="#000000" font-family="sans-serif" font-size="14" lengthAdjust="spacingAndGlyphs" textLength="55" x="717.5" y="557.0342">External</text><path d="M730,512.0391 C730,502.0391 748,502.0391 748,502.0391 C748,502.0391 766,502.0391 766,512.0391 L766,534.0391 C766,544.0391 748,544.0391 748,544.0391 C748,544.0391 730,544.0391 730,534.0391 L730,512.0391 " fill="#FEFECE" filter="url(#f1)" style="stroke: #A80036; stroke-width: 1.5;"/><path d="M730,512.0391 C730,522.0391 748,522.0391 748,522.0391 C748,522.0391 766,522.0391 766,512.0391 " fill="none" style="stroke: #A80036; stroke-width: 1.5;"/><line style="stroke: #A80036; stroke-width: 1.0;" x1="122" x2="122" y1="106.2344" y2="231.6328"/><line style="stroke: #A80036; stroke-width: 1.0; stroke-dasharray: 1.0,4.0;" x1="122" x2="122" y1="231.6328" y2="272.4375"/><line style="stroke: #A80036; stroke-width: 1.0;" x1="122" x2="122" y1="272.4375" y2="388.9688"/><line style="stroke: #A80036; stroke-width: 1.0; stroke-dasharray: 1.0,4.0;" x1="122" x2="122" y1="388.9688" y2="429.7734"/><line style="stroke: #A80036; stroke-width: 1.0;" x1="122" x2="122" y1="429.7734" y2="937.3281"/><line style="stroke: #A80036; stroke-width: 1.0; stroke-dasharray: 1.0,4.0;" x1="122" x2="122" y1="937.3281" y2="965.3281"/><line style="stroke: #A80036; stroke-width: 1.0;" x1="122" x2="122" y1="965.3281" y2="1180.3906"/><line style="stroke: #A80036; stroke-width: 1.0;" x1="361" x2="361" y1="106.2344" y2="231.6328"/><line style="stroke: #A80036; stroke-width: 1.0; stroke-dasharray: 1.0,4.0;" x1="361" x2="361" y1="231.6328" y2="272.4375"/><line style="stroke: #A80036; stroke-width: 1.0;" x1="361" x2="361" y1="272.4375" y2="388.9688"/><line style="stroke: #A80036; stroke-width: 1.0; stroke-dasharray: 1.0,4.0;" x1="361" x2="361" y1="388.9688" y2="429.7734"/><line style="stroke: #A80036; stroke-width: 1.0;" x1="361" x2="361" y1="429.7734" y2="937.3281"/><line style="stroke: #A80036; stroke-width: 1.0; stroke-dasharray: 1.0,4.0;" x1="361" x2="361" y1="937.3281" y2="965.3281"/><line style="stroke: #A80036; stroke-width: 1.0;" x1="361" x2="361" y1="965.3281" y2="1180.3906"/><line style="stroke: #A80036; stroke-width: 1.0;" x1="574" x2="574" y1="106.2344" y2="231.6328"/><line style="stroke: #A80036; stroke-width: 1.0; stroke-dasharray: 1.0,4.0;" x1="574" x2="574" y1="231.6328" y2="272.4375"/><line style="stroke: #A80036; stroke-width: 1.0;" x1="574" x2="574" y1="272.4375" y2="388.9688"/><line style="stroke: #A80036; stroke-width: 1.0; stroke-dasharray: 1.0,4.0;" x1="574" x2="574" y1="388.9688" y2="429.7734"/><line style="stroke: #A80036; stroke-width: 1.0;" x1="574" x2="574" y1="429.7734" y2="937.3281"/><line style="stroke: #A80036; stroke-width: 1.0; stroke-dasharray: 1.0,4.0;" x1="574" x2="574" y1="937.3281" y2="965.3281"/><line style="stroke: #A80036; stroke-width: 1.0;" x1="574" x2="574" y1="965.3281" y2="1180.3906"/><line style="stroke: #A80036; stroke-width: 1.0;" x1="747.5" x2="747.5" y1="546.1875" y2="937.3281"/><line style="stroke: #A80036; stroke-width: 1.0; stroke-dasharray: 1.0,4.0;" x1="747.5" x2="747.5" y1="937.3281" y2="965.3281"/><line style="stroke: #A80036; stroke-width: 1.0;" x1="747.5" x2="747.5" y1="965.3281" y2="1180.3906"/><rect fill="#FEFECE" filter="url(#f1)" height="30.2969" style="stroke: #A80036; stroke-width: 1.5;" width="129" x="56" y="70.9375"/><text fill="#000000" font-family="sans-serif" font-size="14" lengthAdjust="spacingAndGlyphs" textLength="115" x="63" y="90.9326">ThreadedEngine</text><rect fill="#FEFECE" filter="url(#f1)" height="30.2969" style="stroke: #A80036; stroke-width: 1.5;" width="129" x="56" y="1179.3906"/><text fill="#000000" font-family="sans-serif" font-size="14" lengthAdjust="spacingAndGlyphs" textLength="115" x="63" y="1199.3857">ThreadedEngine</text><rect fill="#FEFECE" filter="url(#f1)" height="30.2969" style="stroke: #A80036; stroke-width: 1.5;" width="45" x="337" y="70.9375"/><text fill="#000000" font-family="sans-serif" font-size="14" lengthAdjust="spacingAndGlyphs" textLength="31" x="344" y="90.9326">Rule</text><rect fill="#FEFECE" filter="url(#f1)" height="30.2969" style="stroke: #A80036; stroke-width: 1.5;" width="45" x="337" y="1179.3906"/><text fill="#000000" font-family="sans-serif" font-size="14" lengthAdjust="spacingAndGlyphs" textLength="31" x="344" y="1199.3857">Rule</text><rect fill="#FEFECE" filter="url(#f1)" height="30.2969" style="stroke: #A80036; stroke-width: 1.5;" width="81" x="532" y="70.9375"/><text fill="#000000" font-family="sans-serif" font-size="14" lengthAdjust="spacingAndGlyphs" textLength="67" x="539" y="90.9326">Controller</text><rect fill="#FEFECE" filter="url(#f1)" height="30.2969" style="stroke: #A80036; stroke-width: 1.5;" width="81" x="532" y="1179.3906"/><text fill="#000000" font-family="sans-serif" font-size="14" lengthAdjust="spacingAndGlyphs" textLength="67" x="539" y="1199.3857">Controller</text><text fill="#000000" font-family="sans-serif" font-size="14" lengthAdjust="spacingAndGlyphs" textLength="55" x="717.5" y="1192.3857">External</text><path d="M730,1205.6875 C730,1195.6875 748,1195.6875 748,1195.6875 C748,1195.6875 766,1195.6875 766,1205.6875 L766,1227.6875 C766,1237.6875 748,1237.6875 748,1237.6875 C748,1237.6875 730,1237.6875 730,1227.6875 L730,1205.6875 " fill="#FEFECE" filter="url(#f1)" style="stroke: #A80036; stroke-width: 1.5;"/><path d="M730,1205.6875 C730,1215.6875 748,1215.6875 748,1215.6875 C748,1215.6875 766,1215.6875 766,1205.6875 " fill="none" style="stroke: #A80036; stroke-width: 1.5;"/><rect fill="#EEEEEE" filter="url(#f1)" height="3" style="stroke: #EEEEEE; stroke-width: 1.0;" width="780.5" x="3" y="136.8008"/><line style="stroke: #000000; stroke-width: 1.0;" x1="3" x2="783.5" y1="136.8008" y2="136.8008"/><line style="stroke: #000000; stroke-width: 1.0;" x1="3" x2="783.5" y1="139.8008" y2="139.8008"/><rect fill="#EEEEEE" filter="url(#f1)" height="23.1328" style="stroke: #000000; stroke-width: 2.0;" width="108" x="339.25" y="126.2344"/><text fill="#000000" font-family="sans-serif" font-size="13" font-weight="bold" lengthAdjust="spacingAndGlyphs" textLength="89" x="345.25" y="142.3013">Initialization</text><polygon fill="#A80036" points="562.5,176.3672,572.5,180.3672,562.5,184.3672,566.5,180.3672" style="stroke: #A80036; stroke-width: 1.0;"/><line style="stroke: #A80036; stroke-width: 1.0;" x1="122.5" x2="568.5" y1="180.3672" y2="180.3672"/><text fill="#000000" font-family="sans-serif" font-size="13" lengthAdjust="spacingAndGlyphs" textLength="216" x="129.5" y="175.4341">APP_STATE, AppStateType.SETUP</text><rect fill="#EEEEEE" filter="url(#f1)" height="3" style="stroke: #EEEEEE; stroke-width: 1.0;" width="780.5" x="3" y="209.0664"/><line style="stroke: #000000; stroke-width: 1.0;" x1="3" x2="783.5" y1="209.0664" y2="209.0664"/><line style="stroke: #000000; stroke-width: 1.0;" x1="3" x2="783.5" y1="212.0664" y2="212.0664"/><rect fill="#EEEEEE" filter="url(#f1)" height="23.1328" style="stroke: #000000; stroke-width: 2.0;" width="62" x="362.25" y="198.5"/><text fill="#000000" font-family="sans-serif" font-size="13" font-weight="bold" lengthAdjust="spacingAndGlyphs" textLength="43" x="368.25" y="214.5669">Setup</text><text fill="#000000" font-family="sans-serif" font-size="11" lengthAdjust="spacingAndGlyphs" textLength="109" x="380.75" y="255.8433">Parsing config files</text><polygon fill="#A80036" points="562.5,289.4375,572.5,293.4375,562.5,297.4375,566.5,293.4375" style="stroke: #A80036; stroke-width: 1.0;"/><line style="stroke: #A80036; stroke-width: 1.0;" x1="361.5" x2="568.5" y1="293.4375" y2="293.4375"/><text fill="#000000" font-family="sans-serif" font-size="13" lengthAdjust="spacingAndGlyphs" textLength="173" x="368.5" y="288.5044">ADD_PARSER, source class</text><polygon fill="#A80036" points="562.5,318.5703,572.5,322.5703,562.5,326.5703,566.5,322.5703" style="stroke: #A80036; stroke-width: 1.0;"/><line style="stroke: #A80036; stroke-width: 1.0;" x1="361.5" x2="568.5" y1="322.5703" y2="322.5703"/><text fill="#000000" font-family="sans-serif" font-size="13" lengthAdjust="spacingAndGlyphs" textLength="153" x="368.5" y="317.6372">ADD_SOURCE, source 1</text><polygon fill="#A80036" points="562.5,347.7031,572.5,351.7031,562.5,355.7031,566.5,351.7031" style="stroke: #A80036; stroke-width: 1.0;"/><line style="stroke: #A80036; stroke-width: 1.0;" x1="361.5" x2="568.5" y1="351.7031" y2="351.7031"/><text fill="#000000" font-family="sans-serif" font-size="13" lengthAdjust="spacingAndGlyphs" textLength="153" x="368.5" y="346.77">ADD_SOURCE, source 2</text><polygon fill="#A80036" points="562.5,376.8359,572.5,380.8359,562.5,384.8359,566.5,380.8359" style="stroke: #A80036; stroke-width: 1.0;"/><line style="stroke: #A80036; stroke-width: 1.0;" x1="361.5" x2="568.5" y1="380.8359" y2="380.8359"/><text fill="#000000" font-family="sans-serif" font-size="13" lengthAdjust="spacingAndGlyphs" textLength="163" x="368.5" y="375.9028">ADD_SOURCE, source [n]</text><text fill="#000000" font-family="sans-serif" font-size="11" lengthAdjust="spacingAndGlyphs" textLength="92" x="389.25" y="413.1792">Parsing finished</text><polygon fill="#A80036" points="562.5,446.7734,572.5,450.7734,562.5,454.7734,566.5,450.7734" style="stroke: #A80036; stroke-width: 1.0;"/><line style="stroke: #A80036; stroke-width: 1.0;" x1="122.5" x2="568.5" y1="450.7734" y2="450.7734"/><text fill="#000000" font-family="sans-serif" font-size="13" lengthAdjust="spacingAndGlyphs" textLength="235" x="129.5" y="445.8403">APP_STATE, AppStateType.RUNNING</text><rect fill="#EEEEEE" filter="url(#f1)" height="3" style="stroke: #EEEEEE; stroke-width: 1.0;" width="780.5" x="3" y="479.4727"/><line style="stroke: #000000; stroke-width: 1.0;" x1="3" x2="783.5" y1="479.4727" y2="479.4727"/><line style="stroke: #000000; stroke-width: 1.0;" x1="3" x2="783.5" y1="482.4727" y2="482.4727"/><rect fill="#EEEEEE" filter="url(#f1)" height="23.1328" style="stroke: #000000; stroke-width: 2.0;" width="79" x="353.75" y="468.9063"/><text fill="#000000" font-family="sans-serif" font-size="13" font-weight="bold" lengthAdjust="spacingAndGlyphs" textLength="60" x="359.75" y="484.9731">Running</text><polygon fill="#A80036" points="705.5,549.0391,715.5,553.0391,705.5,557.0391,709.5,553.0391" style="stroke: #A80036; stroke-width: 1.0;"/><line style="stroke: #A80036; stroke-width: 1.0; stroke-dasharray: 2.0,2.0;" x1="574.5" x2="711.5" y1="553.0391" y2="553.0391"/><text fill="#000000" font-family="sans-serif" font-size="13" lengthAdjust="spacingAndGlyphs" textLength="61" x="581.5" y="518.106">[optional]</text><text fill="#000000" font-family="sans-serif" font-size="13" lengthAdjust="spacingAndGlyphs" textLength="119" x="581.5" y="533.2388">Setup subscription</text><text fill="#000000" font-family="sans-serif" font-size="13" lengthAdjust="spacingAndGlyphs" textLength="86" x="581.5" y="548.3716">for source [n]</text><text fill="#000000" font-family="sans-serif" font-size="14" lengthAdjust="spacingAndGlyphs" textLength="55" x="717.5" y="557.0342">External</text><path d="M730,512.0391 C730,502.0391 748,502.0391 748,502.0391 C748,502.0391 766,502.0391 766,512.0391 L766,534.0391 C766,544.0391 748,544.0391 748,544.0391 C748,544.0391 730,544.0391 730,534.0391 L730,512.0391 " fill="#FEFECE" filter="url(#f1)" style="stroke: #A80036; stroke-width: 1.5;"/><path d="M730,512.0391 C730,522.0391 748,522.0391 748,522.0391 C748,522.0391 766,522.0391 766,512.0391 " fill="none" style="stroke: #A80036; stroke-width: 1.5;"/><rect fill="#EEEEEE" filter="url(#f1)" height="3" style="stroke: #EEEEEE; stroke-width: 1.0;" width="780.5" x="3" y="590.9023"/><line style="stroke: #000000; stroke-width: 1.0;" x1="3" x2="783.5" y1="590.9023" y2="590.9023"/><line style="stroke: #000000; stroke-width: 1.0;" x1="3" x2="783.5" y1="593.9023" y2="593.9023"/><rect fill="#EEEEEE" filter="url(#f1)" height="23.1328" style="stroke: #000000; stroke-width: 2.0;" width="69" x="358.75" y="580.3359"/><text fill="#000000" font-family="sans-serif" font-size="13" font-weight="bold" lengthAdjust="spacingAndGlyphs" textLength="50" x="364.75" y="596.4028">Loop {</text><polygon fill="#A80036" points="585.5,645.4688,575.5,649.4688,585.5,653.4688,581.5,649.4688" style="stroke: #A80036; stroke-width: 1.0;"/><polygon fill="#A80036" points="736,645.4688,746,649.4688,736,653.4688,740,649.4688" style="stroke: #A80036; stroke-width: 1.0;"/><line style="stroke: #A80036; stroke-width: 1.0; stroke-dasharray: 2.0,2.0;" x1="579.5" x2="742" y1="649.4688" y2="649.4688"/><text fill="#000000" font-family="sans-serif" font-size="13" lengthAdjust="spacingAndGlyphs" textLength="61" x="591.5" y="629.5356">[optional]</text><text fill="#000000" font-family="sans-serif" font-size="13" lengthAdjust="spacingAndGlyphs" textLength="41" x="591.5" y="644.6685">Polling</text><polygon fill="#A80036" points="585.5,674.7344,575.5,678.7344,585.5,682.7344,581.5,678.7344" style="stroke: #A80036; stroke-width: 1.0;"/><line style="stroke: #A80036; stroke-width: 1.0;" x1="579.5" x2="747" y1="678.7344" y2="678.7344"/><text fill="#000000" font-family="sans-serif" font-size="13" lengthAdjust="spacingAndGlyphs" textLength="89" x="591.5" y="673.8013">Data received</text><rect fill="#FBFB77" filter="url(#f1)" height="68" style="stroke: #A80036; stroke-width: 1.0;" width="142" x="503" y="691.8672"/><text fill="#000000" font-family="sans-serif" font-size="13" lengthAdjust="spacingAndGlyphs" textLength="110" x="507" y="707.9341">Parses / Unpacks</text><text fill="#000000" font-family="sans-serif" font-size="13" lengthAdjust="spacingAndGlyphs" textLength="132" x="507" y="723.0669">external data format</text><text fill="#000000" font-family="sans-serif" font-size="13" lengthAdjust="spacingAndGlyphs" textLength="134" x="507" y="738.1997">and updates value of</text><text fill="#000000" font-family="sans-serif" font-size="13" lengthAdjust="spacingAndGlyphs" textLength="65" x="507" y="753.3325">source [n]</text><polygon fill="#A80036" points="372.5,794.9648,362.5,798.9648,372.5,802.9648,368.5,798.9648" style="stroke: #A80036; stroke-width: 1.0;"/><line style="stroke: #A80036; stroke-width: 1.0;" x1="366.5" x2="573.5" y1="798.9648" y2="798.9648"/><text fill="#000000" font-family="sans-serif" font-size="13" lengthAdjust="spacingAndGlyphs" textLength="189" x="378.5" y="794.0317">RUN_EXPRESSION, source [n]</text><polygon fill="#FBFB77" filter="url(#f1)" points="579,770.3984,579,810.3984,687,810.3984,687,780.3984,677,770.3984,579,770.3984" style="stroke: #A80036; stroke-width: 1.0;"/><line style="stroke: #A80036; stroke-width: 1.0;" x1="677" x2="677" y1="770.3984" y2="780.3984"/><line style="stroke: #A80036; stroke-width: 1.0;" x1="687" x2="677" y1="780.3984" y2="780.3984"/><text fill="#000000" font-family="sans-serif" font-size="13" lengthAdjust="spacingAndGlyphs" textLength="87" x="585" y="787.4653">Value change</text><text fill="#000000" font-family="sans-serif" font-size="13" lengthAdjust="spacingAndGlyphs" textLength="80" x="585" y="802.5981">in source [n]</text><polygon fill="#A80036" points="133.5,856.7969,123.5,860.7969,133.5,864.7969,129.5,860.7969" style="stroke: #A80036; stroke-width: 1.0;"/><line style="stroke: #A80036; stroke-width: 1.0;" x1="127.5" x2="360.5" y1="860.7969" y2="860.7969"/><text fill="#000000" font-family="sans-serif" font-size="13" lengthAdjust="spacingAndGlyphs" textLength="215" x="139.5" y="855.8638">RUN_EXPRESSION, expression [n]</text><polygon fill="#FBFB77" filter="url(#f1)" points="366,824.6641,366,879.6641,568,879.6641,568,834.6641,558,824.6641,366,824.6641" style="stroke: #A80036; stroke-width: 1.0;"/><line style="stroke: #A80036; stroke-width: 1.0;" x1="558" x2="558" y1="824.6641" y2="834.6641"/><line style="stroke: #A80036; stroke-width: 1.0;" x1="568" x2="558" y1="834.6641" y2="834.6641"/><text fill="#000000" font-family="sans-serif" font-size="13" lengthAdjust="spacingAndGlyphs" textLength="155" x="372" y="841.731">Looks up the expression</text><text fill="#000000" font-family="sans-serif" font-size="13" lengthAdjust="spacingAndGlyphs" textLength="130" x="372" y="856.8638">for given source and</text><text fill="#000000" font-family="sans-serif" font-size="13" lengthAdjust="spacingAndGlyphs" textLength="181" x="372" y="871.9966">passes it to ThreadedEngine</text><rect fill="#FBFB77" filter="url(#f1)" height="38" style="stroke: #A80036; stroke-width: 1.0;" width="161" x="42" y="894.0625"/><text fill="#000000" font-family="sans-serif" font-size="13" lengthAdjust="spacingAndGlyphs" textLength="153" x="46" y="910.1294">Executes expression [n]</text><text fill="#000000" font-family="sans-serif" font-size="13" lengthAdjust="spacingAndGlyphs" textLength="142" x="46" y="925.2622">in ThreadPoolExecutor</text><polygon fill="#A80036" points="562.5,1002.4609,572.5,1006.4609,562.5,1010.4609,566.5,1006.4609" style="stroke: #A80036; stroke-width: 1.0;"/><line style="stroke: #A80036; stroke-width: 1.0;" x1="122.5" x2="568.5" y1="1006.4609" y2="1006.4609"/><text fill="#000000" font-family="sans-serif" font-size="13" lengthAdjust="spacingAndGlyphs" textLength="291" x="129.5" y="1001.5278">WRITE_SOURCE, source [n], value, timestamp</text><polygon fill="#FBFB77" filter="url(#f1)" points="8,970.3281,8,1025.3281,114,1025.3281,114,980.3281,104,970.3281,8,970.3281" style="stroke: #A80036; stroke-width: 1.0;"/><line style="stroke: #A80036; stroke-width: 1.0;" x1="104" x2="104" y1="970.3281" y2="980.3281"/><line style="stroke: #A80036; stroke-width: 1.0;" x1="114" x2="104" y1="980.3281" y2="980.3281"/><text fill="#000000" font-family="sans-serif" font-size="13" lengthAdjust="spacingAndGlyphs" textLength="80" x="14" y="987.395">If expression</text><text fill="#000000" font-family="sans-serif" font-size="13" lengthAdjust="spacingAndGlyphs" textLength="71" x="14" y="1002.5278">produces a</text><text fill="#000000" font-family="sans-serif" font-size="13" lengthAdjust="spacingAndGlyphs" textLength="85" x="14" y="1017.6606">value change</text><rect fill="#FBFB77" filter="url(#f1)" height="53" style="stroke: #A80036; stroke-width: 1.0;" width="111" x="519" y="1039.7266"/><text fill="#000000" font-family="sans-serif" font-size="13" lengthAdjust="spacingAndGlyphs" textLength="103" x="523" y="1055.7935">Packs value into</text><text fill="#000000" font-family="sans-serif" font-size="13" lengthAdjust="spacingAndGlyphs" textLength="85" x="523" y="1070.9263">external data</text><text fill="#000000" font-family="sans-serif" font-size="13" lengthAdjust="spacingAndGlyphs" textLength="43" x="523" y="1086.0591">format</text><polygon fill="#A80036" points="736,1115.125,746,1119.125,736,1123.125,740,1119.125" style="stroke: #A80036; stroke-width: 1.0;"/><line style="stroke: #A80036; stroke-width: 1.0;" x1="574.5" x2="742" y1="1119.125" y2="1119.125"/><text fill="#000000" font-family="sans-serif" font-size="13" lengthAdjust="spacingAndGlyphs" textLength="63" x="581.5" y="1114.1919">Data sent</text><rect fill="#EEEEEE" filter="url(#f1)" height="3" style="stroke: #EEEEEE; stroke-width: 1.0;" width="780.5" x="3" y="1147.8242"/><line style="stroke: #000000; stroke-width: 1.0;" x1="3" x2="783.5" y1="1147.8242" y2="1147.8242"/><line style="stroke: #000000; stroke-width: 1.0;" x1="3" x2="783.5" y1="1150.8242" y2="1150.8242"/><rect fill="#EEEEEE" filter="url(#f1)" height="23.1328" style="stroke: #000000; stroke-width: 2.0;" width="28" x="379.25" y="1137.2578"/><text fill="#000000" font-family="sans-serif" font-size="13" font-weight="bold" lengthAdjust="spacingAndGlyphs" textLength="9" x="385.25" y="1153.3247">}</text><text fill="#888888" font-family="sans-serif" font-size="10" lengthAdjust="spacingAndGlyphs" textLength="72" x="711.5" y="12.2822">SharedQueues</text></g></svg>