<?xml version="1.0" encoding="UTF-8" standalone="yes"?><svg xmlns="http://www.w3.org/2000/svg" xmlns:xlink="http://www.w3.org/1999/xlink" height="415px" style="width:1032px;height:415px;" version="1.1" viewBox="0 0 1032 415" width="1032px"><defs><filter height="300%" id="f1" width="300%" x="-1" y="-1"><feGaussianBlur result="blurOut" stdDeviation="2.0"/><feColorMatrix in="blurOut" result="blurOut2" type="matrix" values="0 0 0 0 0 0 0 0 0 0 0 0 0 0 0 0 0 0 .4 0"/><feOffset dx="4.0" dy="4.0" in="blurOut2" result="blurOut3"/><feBlend in="SourceGraphic" in2="blurOut3" mode="normal"/></filter></defs><g><rect fill="#FFFFFF" filter="url(#f1)" height="97" style="stroke: #000000; stroke-width: 2.0;" width="865" x="22" y="24"/><path d="M177,25 L177,33.2969 L167,43.2969 L22,43.2969 " fill="#FFFFFF" style="stroke: #000000; stroke-width: 2.0;"/><text fill="#000000" font-family="sans-serif" font-size="14" font-weight="bold" lengthAdjust="spacingAndGlyphs" textLength="145" x="25" y="37.9951">netdef.Controllers</text><path d="M282,180 C282,170 631,170 631,170 C631,170 980,170 980,180 L980,252 C980,262 631,262 631,262 C631,262 282,262 282,252 L282,180 " fill="#FFFFFF" filter="url(#f1)" style="stroke: #000000; stroke-width: 2.0;"/><path d="M282,180 C282,190 631,190 631,190 C631,190 980,190 980,180 " fill="none" style="stroke: #000000; stroke-width: 2.0;"/><text fill="#000000" font-family="sans-serif" font-size="14" font-weight="bold" lengthAdjust="spacingAndGlyphs" textLength="235" x="513.5" y="203.9951">netdef.Shared.SharedQueues</text><rect fill="#FFFFFF" filter="url(#f1)" height="97" style="stroke: #000000; stroke-width: 2.0;" width="254" x="771" y="311"/><path d="M881,312 L881,320.2969 L871,330.2969 L771,330.2969 " fill="#FFFFFF" style="stroke: #000000; stroke-width: 2.0;"/><text fill="#000000" font-family="sans-serif" font-size="14" font-weight="bold" lengthAdjust="spacingAndGlyphs" textLength="100" x="774" y="324.9951">netdef.Rules</text><rect fill="#FFFFFF" filter="url(#f1)" height="97" style="stroke: #000000; stroke-width: 2.0;" width="188" x="559" y="311"/><path d="M688,312 L688,320.2969 L678,330.2969 L559,330.2969 " fill="#FFFFFF" style="stroke: #000000; stroke-width: 2.0;"/><text fill="#000000" font-family="sans-serif" font-size="14" font-weight="bold" lengthAdjust="spacingAndGlyphs" textLength="119" x="562" y="324.9951">netdef.Engines</text><rect fill="#FEFECE" filter="url(#f1)" height="46.2969" style="stroke: #A80036; stroke-width: 1.5;" width="200" x="38" y="59"/><rect fill="#FEFECE" height="10" style="stroke: #A80036; stroke-width: 1.5;" width="15" x="218" y="64"/><rect fill="#FEFECE" height="2" style="stroke: #A80036; stroke-width: 1.5;" width="4" x="216" y="66"/><rect fill="#FEFECE" height="2" style="stroke: #A80036; stroke-width: 1.5;" width="4" x="216" y="70"/><text fill="#000000" font-family="sans-serif" font-size="14" lengthAdjust="spacingAndGlyphs" textLength="160" x="53" y="91.9951">OPCUAServerController</text><rect fill="#FEFECE" filter="url(#f1)" height="46.2969" style="stroke: #A80036; stroke-width: 1.5;" width="207" x="273.5" y="59"/><rect fill="#FEFECE" height="10" style="stroke: #A80036; stroke-width: 1.5;" width="15" x="460.5" y="64"/><rect fill="#FEFECE" height="2" style="stroke: #A80036; stroke-width: 1.5;" width="4" x="458.5" y="66"/><rect fill="#FEFECE" height="2" style="stroke: #A80036; stroke-width: 1.5;" width="4" x="458.5" y="70"/><text fill="#000000" font-family="sans-serif" font-size="14" lengthAdjust="spacingAndGlyphs" textLength="167" x="288.5" y="91.9951">ModbusServerController</text><rect fill="#FEFECE" filter="url(#f1)" height="46.2969" style="stroke: #A80036; stroke-width: 1.5;" width="158" x="516" y="59"/><rect fill="#FEFECE" height="10" style="stroke: #A80036; stroke-width: 1.5;" width="15" x="654" y="64"/><rect fill="#FEFECE" height="2" style="stroke: #A80036; stroke-width: 1.5;" width="4" x="652" y="66"/><rect fill="#FEFECE" height="2" style="stroke: #A80036; stroke-width: 1.5;" width="4" x="652" y="70"/><text fill="#000000" font-family="sans-serif" font-size="14" lengthAdjust="spacingAndGlyphs" textLength="118" x="531" y="91.9951">InternalController</text><rect fill="#FEFECE" filter="url(#f1)" height="46.2969" style="stroke: #A80036; stroke-width: 1.5;" width="162" x="709" y="59"/><rect fill="#FEFECE" height="10" style="stroke: #A80036; stroke-width: 1.5;" width="15" x="851" y="64"/><rect fill="#FEFECE" height="2" style="stroke: #A80036; stroke-width: 1.5;" width="4" x="849" y="66"/><rect fill="#FEFECE" height="2" style="stroke: #A80036; stroke-width: 1.5;" width="4" x="849" y="70"/><text fill="#000000" font-family="sans-serif" font-size="14" lengthAdjust="spacingAndGlyphs" textLength="122" x="724" y="91.9951">CrontabController</text><path d="M303.5,220 L358.5,220 C363.5,220 363.5,233.1484 363.5,233.1484 C363.5,233.1484 363.5,246.2969 358.5,246.2969 L303.5,246.2969 C298.5,246.2969 298.5,233.1484 298.5,233.1484 C298.5,233.1484 298.5,220 303.5,220 " fill="#FEFECE" filter="url(#f1)" style="stroke: #A80036; stroke-width: 1.5;"/><path d="M358.5,220 C353.5,220 353.5,233.1484 353.5,233.1484 C353.5,246.2969 358.5,246.2969 358.5,246.2969 " fill="none" style="stroke: #A80036; stroke-width: 1.5;"/><text fill="#000000" font-family="sans-serif" font-size="14" lengthAdjust="spacingAndGlyphs" textLength="45" x="303.5" y="237.9951">queue</text><path d="M403.5,220 L458.5,220 C463.5,220 463.5,233.1484 463.5,233.1484 C463.5,233.1484 463.5,246.2969 458.5,246.2969 L403.5,246.2969 C398.5,246.2969 398.5,233.1484 398.5,233.1484 C398.5,233.1484 398.5,220 403.5,220 " fill="#FEFECE" filter="url(#f1)" style="stroke: #A80036; stroke-width: 1.5;"/><path d="M458.5,220 C453.5,220 453.5,233.1484 453.5,233.1484 C453.5,246.2969 458.5,246.2969 458.5,246.2969 " fill="none" style="stroke: #A80036; stroke-width: 1.5;"/><text fill="#000000" font-family="sans-serif" font-size="14" lengthAdjust="spacingAndGlyphs" textLength="45" x="403.5" y="237.9951">queue</text><path d="M503.5,220 L558.5,220 C563.5,220 563.5,233.1484 563.5,233.1484 C563.5,233.1484 563.5,246.2969 558.5,246.2969 L503.5,246.2969 C498.5,246.2969 498.5,233.1484 498.5,233.1484 C498.5,233.1484 498.5,220 503.5,220 " fill="#FEFECE" filter="url(#f1)" style="stroke: #A80036; stroke-width: 1.5;"/><path d="M558.5,220 C553.5,220 553.5,233.1484 553.5,233.1484 C553.5,246.2969 558.5,246.2969 558.5,246.2969 " fill="none" style="stroke: #A80036; stroke-width: 1.5;"/><text fill="#000000" font-family="sans-serif" font-size="14" lengthAdjust="spacingAndGlyphs" textLength="45" x="503.5" y="237.9951">queue</text><path d="M603.5,220 L658.5,220 C663.5,220 663.5,233.1484 663.5,233.1484 C663.5,233.1484 663.5,246.2969 658.5,246.2969 L603.5,246.2969 C598.5,246.2969 598.5,233.1484 598.5,233.1484 C598.5,233.1484 598.5,220 603.5,220 " fill="#FEFECE" filter="url(#f1)" style="stroke: #A80036; stroke-width: 1.5;"/><path d="M658.5,220 C653.5,220 653.5,233.1484 653.5,233.1484 C653.5,246.2969 658.5,246.2969 658.5,246.2969 " fill="none" style="stroke: #A80036; stroke-width: 1.5;"/><text fill="#000000" font-family="sans-serif" font-size="14" lengthAdjust="spacingAndGlyphs" textLength="45" x="603.5" y="237.9951">queue</text><path d="M903.5,220 L958.5,220 C963.5,220 963.5,233.1484 963.5,233.1484 C963.5,233.1484 963.5,246.2969 958.5,246.2969 L903.5,246.2969 C898.5,246.2969 898.5,233.1484 898.5,233.1484 C898.5,233.1484 898.5,220 903.5,220 " fill="#FEFECE" filter="url(#f1)" style="stroke: #A80036; stroke-width: 1.5;"/><path d="M958.5,220 C953.5,220 953.5,233.1484 953.5,233.1484 C953.5,246.2969 958.5,246.2969 958.5,246.2969 " fill="none" style="stroke: #A80036; stroke-width: 1.5;"/><text fill="#000000" font-family="sans-serif" font-size="14" lengthAdjust="spacingAndGlyphs" textLength="45" x="903.5" y="237.9951">queue</text><path d="M803.5,220 L858.5,220 C863.5,220 863.5,233.1484 863.5,233.1484 C863.5,233.1484 863.5,246.2969 858.5,246.2969 L803.5,246.2969 C798.5,246.2969 798.5,233.1484 798.5,233.1484 C798.5,233.1484 798.5,220 803.5,220 " fill="#FEFECE" filter="url(#f1)" style="stroke: #A80036; stroke-width: 1.5;"/><path d="M858.5,220 C853.5,220 853.5,233.1484 853.5,233.1484 C853.5,246.2969 858.5,246.2969 858.5,246.2969 " fill="none" style="stroke: #A80036; stroke-width: 1.5;"/><text fill="#000000" font-family="sans-serif" font-size="14" lengthAdjust="spacingAndGlyphs" textLength="45" x="803.5" y="237.9951">queue</text><path d="M703.5,220 L758.5,220 C763.5,220 763.5,233.1484 763.5,233.1484 C763.5,233.1484 763.5,246.2969 758.5,246.2969 L703.5,246.2969 C698.5,246.2969 698.5,233.1484 698.5,233.1484 C698.5,233.1484 698.5,220 703.5,220 " fill="#FEFECE" filter="url(#f1)" style="stroke: #A80036; stroke-width: 1.5;"/><path d="M758.5,220 C753.5,220 753.5,233.1484 753.5,233.1484 C753.5,246.2969 758.5,246.2969 758.5,246.2969 " fill="none" style="stroke: #A80036; stroke-width: 1.5;"/><text fill="#000000" font-family="sans-serif" font-size="14" lengthAdjust="spacingAndGlyphs" textLength="45" x="703.5" y="237.9951">queue</text><rect fill="#FEFECE" filter="url(#f1)" height="46.2969" style="stroke: #A80036; stroke-width: 1.5;" width="99" x="909.5" y="346"/><rect fill="#FEFECE" height="10" style="stroke: #A80036; stroke-width: 1.5;" width="15" x="988.5" y="351"/><rect fill="#FEFECE" height="2" style="stroke: #A80036; stroke-width: 1.5;" width="4" x="986.5" y="353"/><rect fill="#FEFECE" height="2" style="stroke: #A80036; stroke-width: 1.5;" width="4" x="986.5" y="357"/><text fill="#000000" font-family="sans-serif" font-size="14" lengthAdjust="spacingAndGlyphs" textLength="59" x="924.5" y="378.9951">CSVRule</text><rect fill="#FEFECE" filter="url(#f1)" height="46.2969" style="stroke: #A80036; stroke-width: 1.5;" width="87" x="787.5" y="346"/><rect fill="#FEFECE" height="10" style="stroke: #A80036; stroke-width: 1.5;" width="15" x="854.5" y="351"/><rect fill="#FEFECE" height="2" style="stroke: #A80036; stroke-width: 1.5;" width="4" x="852.5" y="353"/><rect fill="#FEFECE" height="2" style="stroke: #A80036; stroke-width: 1.5;" width="4" x="852.5" y="357"/><text fill="#000000" font-family="sans-serif" font-size="14" lengthAdjust="spacingAndGlyphs" textLength="47" x="802.5" y="378.9951">INIRule</text><rect fill="#FEFECE" filter="url(#f1)" height="46.2969" style="stroke: #A80036; stroke-width: 1.5;" width="155" x="575.5" y="346"/><rect fill="#FEFECE" height="10" style="stroke: #A80036; stroke-width: 1.5;" width="15" x="710.5" y="351"/><rect fill="#FEFECE" height="2" style="stroke: #A80036; stroke-width: 1.5;" width="4" x="708.5" y="353"/><rect fill="#FEFECE" height="2" style="stroke: #A80036; stroke-width: 1.5;" width="4" x="708.5" y="357"/><text fill="#000000" font-family="sans-serif" font-size="14" lengthAdjust="spacingAndGlyphs" textLength="115" x="590.5" y="378.9951">ThreadedEngine</text><path d="M170.853,108.363 C212.719,140.684 283.43,195.275 314.975,219.628 " fill="none" style="stroke: #A80036; stroke-width: 1.0;"/><polygon fill="#A80036" points="166.894,105.307,171.5741,113.9728,170.852,108.3622,176.4625,107.6401,166.894,105.307" style="stroke: #A80036; stroke-width: 1.0;"/><text fill="#000000" font-family="sans-serif" font-size="13" lengthAdjust="spacingAndGlyphs" textLength="58" x="230" y="150.0669">Incoming</text><path d="M386.91,110.345 C398.699,142.873 417.868,195.766 426.516,219.628 " fill="none" style="stroke: #A80036; stroke-width: 1.0;"/><polygon fill="#A80036" points="385.084,105.307,384.3916,115.1315,386.7885,110.0075,391.9125,112.4043,385.084,105.307" style="stroke: #A80036; stroke-width: 1.0;"/><text fill="#000000" font-family="sans-serif" font-size="13" lengthAdjust="spacingAndGlyphs" textLength="58" x="404" y="150.0669">Incoming</text><path d="M583.427,109.944 C569.47,142.437 546.606,195.668 536.314,219.628 " fill="none" style="stroke: #A80036; stroke-width: 1.0;"/><polygon fill="#A80036" points="585.419,105.307,578.1906,111.9966,583.4449,109.9008,585.5407,115.1551,585.419,105.307" style="stroke: #A80036; stroke-width: 1.0;"/><text fill="#000000" font-family="sans-serif" font-size="13" lengthAdjust="spacingAndGlyphs" textLength="58" x="571" y="150.0669">Incoming</text><path d="M749.349,107.874 C727.725,122.192 701.457,141.401 681,162 C663.004,180.12 646.741,205.266 637.924,219.966 " fill="none" style="stroke: #A80036; stroke-width: 1.0;"/><polygon fill="#A80036" points="753.608,105.077,743.8895,106.6741,749.4287,107.8217,748.2811,113.361,753.608,105.077" style="stroke: #A80036; stroke-width: 1.0;"/><text fill="#000000" font-family="sans-serif" font-size="13" lengthAdjust="spacingAndGlyphs" textLength="58" x="709" y="150.0669">Incoming</text><path d="M933.584,246.366 C938.045,267.714 947.29,311.959 953.314,340.7902 " fill="none" style="stroke: #A80036; stroke-width: 1.0;"/><polygon fill="#A80036" points="954.4,345.9852,956.4743,336.3573,953.3771,341.0909,948.6435,337.9938,954.4,345.9852" style="stroke: #A80036; stroke-width: 1.0;"/><text fill="#000000" font-family="sans-serif" font-size="13" lengthAdjust="spacingAndGlyphs" textLength="58" x="944" y="291.0669">Incoming</text><path d="M831,246.366 C831,267.714 831,311.959 831,340.7902 " fill="none" style="stroke: #A80036; stroke-width: 1.0;"/><polygon fill="#A80036" points="831,345.9852,835,336.9852,831,340.9852,827,336.9852,831,345.9852" style="stroke: #A80036; stroke-width: 1.0;"/><text fill="#000000" font-family="sans-serif" font-size="13" lengthAdjust="spacingAndGlyphs" textLength="58" x="832" y="291.0669">Incoming</text><path d="M723.802,246.366 C711.272,267.891 685.192,312.695 668.423,341.5048 " fill="none" style="stroke: #A80036; stroke-width: 1.0;"/><polygon fill="#A80036" points="665.815,345.9852,673.8003,340.2202,668.3308,341.6643,666.8867,336.1948,665.815,345.9852" style="stroke: #A80036; stroke-width: 1.0;"/><text fill="#000000" font-family="sans-serif" font-size="13" lengthAdjust="spacingAndGlyphs" textLength="58" x="704" y="291.0669">Incoming</text></g></svg>