<?xml version="1.0" encoding="UTF-8" standalone="yes"?><svg xmlns="http://www.w3.org/2000/svg" xmlns:xlink="http://www.w3.org/1999/xlink" height="633px" style="width:807px;height:633px;" version="1.1" viewBox="0 0 807 633" width="807px"><defs><filter height="300%" id="f1" width="300%" x="-1" y="-1"><feGaussianBlur result="blurOut" stdDeviation="2.0"/><feColorMatrix in="blurOut" result="blurOut2" type="matrix" values="0 0 0 0 0 0 0 0 0 0 0 0 0 0 0 0 0 0 .4 0"/><feOffset dx="4.0" dy="4.0" in="blurOut2" result="blurOut3"/><feBlend in="SourceGraphic" in2="blurOut3" mode="normal"/></filter></defs><g><rect fill="#FFFFFF" filter="url(#f1)" height="97" style="stroke: #000000; stroke-width: 2.0;" width="232" x="459.5" y="24"/><path d="M614.5,25 L614.5,33.2969 L604.5,43.2969 L459.5,43.2969 " fill="#FFFFFF" style="stroke: #000000; stroke-width: 2.0;"/><text fill="#000000" font-family="sans-serif" font-size="14" font-weight="bold" lengthAdjust="spacingAndGlyphs" textLength="145" x="462.5" y="37.9951">netdef.Controllers</text><path d="M214.5,286 C214.5,276 363.5,276 363.5,276 C363.5,276 512.5,276 512.5,286 L512.5,358 C512.5,368 363.5,368 363.5,368 C363.5,368 214.5,368 214.5,358 L214.5,286 " fill="#FFFFFF" filter="url(#f1)" style="stroke: #000000; stroke-width: 2.0;"/><path d="M214.5,286 C214.5,296 363.5,296 363.5,296 C363.5,296 512.5,296 512.5,286 " fill="none" style="stroke: #000000; stroke-width: 2.0;"/><text fill="#000000" font-family="sans-serif" font-size="14" font-weight="bold" lengthAdjust="spacingAndGlyphs" textLength="235" x="246" y="309.9951">netdef.Shared.SharedQueues</text><rect fill="#FFFFFF" filter="url(#f1)" height="97" style="stroke: #000000; stroke-width: 2.0;" width="132" x="297.5" y="529"/><path d="M407.5,530 L407.5,538.2969 L397.5,548.2969 L297.5,548.2969 " fill="#FFFFFF" style="stroke: #000000; stroke-width: 2.0;"/><text fill="#000000" font-family="sans-serif" font-size="14" font-weight="bold" lengthAdjust="spacingAndGlyphs" textLength="100" x="300.5" y="542.9951">netdef.Rules</text><rect fill="#FFFFFF" filter="url(#f1)" height="97" style="stroke: #000000; stroke-width: 2.0;" width="188" x="79.5" y="24"/><path d="M208.5,25 L208.5,33.2969 L198.5,43.2969 L79.5,43.2969 " fill="#FFFFFF" style="stroke: #000000; stroke-width: 2.0;"/><text fill="#000000" font-family="sans-serif" font-size="14" font-weight="bold" lengthAdjust="spacingAndGlyphs" textLength="119" x="82.5" y="37.9951">netdef.Engines</text><rect fill="#FEFECE" filter="url(#f1)" height="46.2969" style="stroke: #A80036; stroke-width: 1.5;" width="200" x="475.5" y="59"/><rect fill="#FEFECE" height="10" style="stroke: #A80036; stroke-width: 1.5;" width="15" x="655.5" y="64"/><rect fill="#FEFECE" height="2" style="stroke: #A80036; stroke-width: 1.5;" width="4" x="653.5" y="66"/><rect fill="#FEFECE" height="2" style="stroke: #A80036; stroke-width: 1.5;" width="4" x="653.5" y="70"/><text fill="#000000" font-family="sans-serif" font-size="14" lengthAdjust="spacingAndGlyphs" textLength="160" x="490.5" y="91.9951">OPCUAServerController</text><path d="M336,326 L391,326 C396,326 396,339.1484 396,339.1484 C396,339.1484 396,352.2969 391,352.2969 L336,352.2969 C331,352.2969 331,339.1484 331,339.1484 C331,339.1484 331,326 336,326 " fill="#FEFECE" filter="url(#f1)" style="stroke: #A80036; stroke-width: 1.5;"/><path d="M391,326 C386,326 386,339.1484 386,339.1484 C386,352.2969 391,352.2969 391,352.2969 " fill="none" style="stroke: #A80036; stroke-width: 1.5;"/><text fill="#000000" font-family="sans-serif" font-size="14" lengthAdjust="spacingAndGlyphs" textLength="45" x="336" y="343.9951">queue</text><path d="M436,326 L491,326 C496,326 496,339.1484 496,339.1484 C496,339.1484 496,352.2969 491,352.2969 L436,352.2969 C431,352.2969 431,339.1484 431,339.1484 C431,339.1484 431,326 436,326 " fill="#FEFECE" filter="url(#f1)" style="stroke: #A80036; stroke-width: 1.5;"/><path d="M491,326 C486,326 486,339.1484 486,339.1484 C486,352.2969 491,352.2969 491,352.2969 " fill="none" style="stroke: #A80036; stroke-width: 1.5;"/><text fill="#000000" font-family="sans-serif" font-size="14" lengthAdjust="spacingAndGlyphs" textLength="45" x="436" y="343.9951">queue</text><path d="M236,326 L291,326 C296,326 296,339.1484 296,339.1484 C296,339.1484 296,352.2969 291,352.2969 L236,352.2969 C231,352.2969 231,339.1484 231,339.1484 C231,339.1484 231,326 236,326 " fill="#FEFECE" filter="url(#f1)" style="stroke: #A80036; stroke-width: 1.5;"/><path d="M291,326 C286,326 286,339.1484 286,339.1484 C286,352.2969 291,352.2969 291,352.2969 " fill="none" style="stroke: #A80036; stroke-width: 1.5;"/><text fill="#000000" font-family="sans-serif" font-size="14" lengthAdjust="spacingAndGlyphs" textLength="45" x="236" y="343.9951">queue</text><rect fill="#FEFECE" filter="url(#f1)" height="46.2969" style="stroke: #A80036; stroke-width: 1.5;" width="99" x="314" y="564"/><rect fill="#FEFECE" height="10" style="stroke: #A80036; stroke-width: 1.5;" width="15" x="393" y="569"/><rect fill="#FEFECE" height="2" style="stroke: #A80036; stroke-width: 1.5;" width="4" x="391" y="571"/><rect fill="#FEFECE" height="2" style="stroke: #A80036; stroke-width: 1.5;" width="4" x="391" y="575"/><text fill="#000000" font-family="sans-serif" font-size="14" lengthAdjust="spacingAndGlyphs" textLength="59" x="329" y="596.9951">CSVRule</text><rect fill="#FEFECE" filter="url(#f1)" height="46.2969" style="stroke: #A80036; stroke-width: 1.5;" width="155" x="96" y="59"/><rect fill="#FEFECE" height="10" style="stroke: #A80036; stroke-width: 1.5;" width="15" x="231" y="64"/><rect fill="#FEFECE" height="2" style="stroke: #A80036; stroke-width: 1.5;" width="4" x="229" y="66"/><rect fill="#FEFECE" height="2" style="stroke: #A80036; stroke-width: 1.5;" width="4" x="229" y="70"/><text fill="#000000" font-family="sans-serif" font-size="14" lengthAdjust="spacingAndGlyphs" textLength="115" x="111" y="91.9951">ThreadedEngine</text><ellipse cx="173.2976" cy="198.6489" fill="#FEFECE" filter="url(#f1)" rx="70.2976" ry="30.6489" style="stroke: #A80036; stroke-width: 1.5;"/><text fill="#000000" font-family="sans-serif" font-size="14" font-weight="bold" lengthAdjust="spacingAndGlyphs" textLength="16" x="165.2976" y="183.9929">1:</text><text fill="#000000" font-family="sans-serif" font-size="14" lengthAdjust="spacingAndGlyphs" textLength="119" x="113.7976" y="200.2898">Send APP_STATE</text><text fill="#000000" font-family="sans-serif" font-size="14" lengthAdjust="spacingAndGlyphs" textLength="85" x="130.7976" y="216.5867">to Controller</text><ellipse cx="363.48" cy="448.5847" fill="#FEFECE" filter="url(#f1)" rx="117.48" ry="33.5847" style="stroke: #A80036; stroke-width: 1.5;"/><text fill="#000000" font-family="sans-serif" font-size="14" font-weight="bold" lengthAdjust="spacingAndGlyphs" textLength="16" x="355.48" y="430.8716">2:</text><text fill="#000000" font-family="sans-serif" font-size="14" lengthAdjust="spacingAndGlyphs" textLength="167" x="279.98" y="447.1685">Send ADD_SOURCE and</text><text fill="#000000" font-family="sans-serif" font-size="14" lengthAdjust="spacingAndGlyphs" textLength="183" x="271.98" y="463.4654">ADD_PARSER to Controller</text><ellipse cx="706.679" cy="198.2676" fill="#FEFECE" filter="url(#f1)" rx="94.179" ry="28.7676" style="stroke: #A80036; stroke-width: 1.5;"/><text fill="#000000" font-family="sans-serif" font-size="14" font-weight="bold" lengthAdjust="spacingAndGlyphs" textLength="16" x="698.679" y="186.6192">3:</text><text fill="#000000" font-family="sans-serif" font-size="14" lengthAdjust="spacingAndGlyphs" textLength="173" x="620.179" y="202.9161">Sends RUN_EXPRESSION</text><text fill="#000000" font-family="sans-serif" font-size="14" lengthAdjust="spacingAndGlyphs" textLength="49" x="682.179" y="219.2129">to Rule</text><ellipse cx="108.4185" cy="448.5961" fill="#FEFECE" filter="url(#f1)" rx="102.4185" ry="31.0961" style="stroke: #A80036; stroke-width: 1.5;"/><text fill="#000000" font-family="sans-serif" font-size="14" font-weight="bold" lengthAdjust="spacingAndGlyphs" textLength="16" x="100.4185" y="433.388">4:</text><text fill="#000000" font-family="sans-serif" font-size="14" lengthAdjust="spacingAndGlyphs" textLength="173" x="21.9185" y="449.6849">Sends RUN_EXPRESSION</text><text fill="#000000" font-family="sans-serif" font-size="14" lengthAdjust="spacingAndGlyphs" textLength="133" x="41.9185" y="465.9817">to ThreadedEngine</text><ellipse cx="363.7025" cy="198.467" fill="#FEFECE" filter="url(#f1)" rx="84.2025" ry="29.467" style="stroke: #A80036; stroke-width: 1.5;"/><text fill="#000000" font-family="sans-serif" font-size="14" font-weight="bold" lengthAdjust="spacingAndGlyphs" textLength="16" x="355.7025" y="184.9256">5:</text><text fill="#000000" font-family="sans-serif" font-size="14" lengthAdjust="spacingAndGlyphs" textLength="150" x="288.7025" y="201.2225">Send WRITE_SOURCE</text><text fill="#000000" font-family="sans-serif" font-size="14" lengthAdjust="spacingAndGlyphs" textLength="85" x="321.2025" y="217.5194">to Controller</text><path d="M558.468,109.604 C538.165,140.234 502.216,191.178 464.5,229 C444.351,249.205 433.345,247.497 413.5,268 C395.842,286.243 379.587,311.125 370.659,325.785 " fill="none" style="stroke: #A80036; stroke-width: 1.0;"/><polygon fill="#A80036" points="561.348,105.237,553.0539,110.5481,558.5953,109.411,559.7324,114.9524,561.348,105.237" style="stroke: #A80036; stroke-width: 1.0;"/><text fill="#000000" font-family="sans-serif" font-size="13" lengthAdjust="spacingAndGlyphs" textLength="58" x="516.5" y="203.0669">Incoming</text><path d="M471.987,352.386 C488.281,377.83 520.468,437.346 498.5,482 C481.135,517.297 445.391,543.9838 415.044,561.4823 " fill="none" style="stroke: #A80036; stroke-width: 1.0;"/><polygon fill="#A80036" points="410.609,563.9973,420.4111,563.0386,414.9587,561.5315,416.4658,556.0791,410.609,563.9973" style="stroke: #A80036; stroke-width: 1.0;"/><text fill="#000000" font-family="sans-serif" font-size="13" lengthAdjust="spacingAndGlyphs" textLength="58" x="506.5" y="453.0669">Incoming</text><path d="M98.9252,107.349 C70.7581,120.593 41.6375,140.122 25.5,168 C11.9178,191.463 10.8549,206.185 25.5,229 C71.4081,300.519 177.24,325.714 230.956,334.1 " fill="none" style="stroke: #A80036; stroke-width: 1.0;"/><polygon fill="#A80036" points="103.8014,105.114,93.9532,105.2298,99.2565,107.1983,97.2881,112.5016,103.8014,105.114" style="stroke: #A80036; stroke-width: 1.0;"/><text fill="#000000" font-family="sans-serif" font-size="13" lengthAdjust="spacingAndGlyphs" textLength="58" x="26.5" y="203.0669">Incoming</text><path d="M173.5,105.077 C173.5,121.352 173.5,143.82 173.5,162.528 " fill="none" style="stroke: #A80036; stroke-width: 1.0; stroke-dasharray: 7.0,7.0;"/><polygon fill="#A80036" points="173.5,167.697,177.5,158.697,173.5,162.697,169.5,158.697,173.5,167.697" style="stroke: #A80036; stroke-width: 1.0;"/><path d="M227.374,218.477 C255.064,229.97 288.207,246.575 313.5,268 C331.366,283.134 346.102,305.986 354.841,321.426 " fill="none" style="stroke: #A80036; stroke-width: 1.0; stroke-dasharray: 7.0,7.0;"/><polygon fill="#A80036" points="357.357,325.963,356.4916,316.1522,354.9327,321.5901,349.4948,320.0312,357.357,325.963" style="stroke: #A80036; stroke-width: 1.0;"/><path d="M363.5,487.336 C363.5,511.928 363.5,543.1427 363.5,563.8032 " fill="none" style="stroke: #A80036; stroke-width: 1.0; stroke-dasharray: 7.0,7.0;"/><polygon fill="#A80036" points="363.5,482.195,359.5,491.195,363.5,487.195,367.5,491.195,363.5,482.195" style="stroke: #A80036; stroke-width: 1.0;"/><path d="M363.5,357.666 C363.5,373.111 363.5,395.942 363.5,414.722 " fill="none" style="stroke: #A80036; stroke-width: 1.0; stroke-dasharray: 7.0,7.0;"/><polygon fill="#A80036" points="363.5,352.332,359.5,361.332,363.5,357.332,367.5,361.332,363.5,352.332" style="stroke: #A80036; stroke-width: 1.0;"/><path d="M600.758,105.077 C621,122.769 649.613,147.778 671.972,167.321 " fill="none" style="stroke: #A80036; stroke-width: 1.0; stroke-dasharray: 7.0,7.0;"/><polygon fill="#A80036" points="675.786,170.655,671.6418,161.7205,672.0213,167.3646,666.3771,167.7441,675.786,170.655" style="stroke: #A80036; stroke-width: 1.0;"/><path d="M663.056,224.261 C612.478,253.089 530.603,299.754 489.212,323.345 " fill="none" style="stroke: #A80036; stroke-width: 1.0; stroke-dasharray: 7.0,7.0;"/><polygon fill="#A80036" points="484.852,325.83,494.6519,324.8492,489.1961,323.3544,490.6909,317.8986,484.852,325.83" style="stroke: #A80036; stroke-width: 1.0;"/><path d="M162.213,478.252 C209.882,503.769 278.533,540.517 322.069,563.8222 " fill="none" style="stroke: #A80036; stroke-width: 1.0; stroke-dasharray: 7.0,7.0;"/><polygon fill="#A80036" points="157.667,475.819,163.7138,483.5931,162.0751,478.1788,167.4894,476.5401,157.667,475.819" style="stroke: #A80036; stroke-width: 1.0;"/><path d="M241.698,355.121 C217.563,371.86 178.149,399.195 148.444,419.797 " fill="none" style="stroke: #A80036; stroke-width: 1.0; stroke-dasharray: 7.0,7.0;"/><polygon fill="#A80036" points="246.021,352.123,236.3461,353.966,241.9127,354.9728,240.9059,360.5394,246.021,352.123" style="stroke: #A80036; stroke-width: 1.0;"/><path d="M210.134,105.077 C240.888,123.61 284.966,150.173 317.983,170.07 " fill="none" style="stroke: #A80036; stroke-width: 1.0; stroke-dasharray: 7.0,7.0;"/><polygon fill="#A80036" points="322.361,172.708,316.7158,164.6376,318.0781,170.128,312.5877,171.4903,322.361,172.708" style="stroke: #A80036; stroke-width: 1.0;"/><path d="M363.5,228.197 C363.5,256.071 363.5,297.48 363.5,320.664 " fill="none" style="stroke: #A80036; stroke-width: 1.0; stroke-dasharray: 7.0,7.0;"/><polygon fill="#A80036" points="363.5,325.872,367.5,316.872,363.5,320.872,359.5,316.872,363.5,325.872" style="stroke: #A80036; stroke-width: 1.0;"/></g></svg>